<svg id="visual" viewBox="0 0 900 600" width="900" height="600" xmlns="http://www.w3.org/2000/svg" xmlns:xlink="http://www.w3.org/1999/xlink" version="1.1"><rect x="0" y="0" width="900" height="600" fill="#309dd3"></rect><path d="M0 391L21.5 389.8C43 388.7 86 386.3 128.8 395.3C171.7 404.3 214.3 424.7 257.2 441.8C300 459 343 473 385.8 481.2C428.7 489.3 471.3 491.7 514.2 479.3C557 467 600 440 642.8 425.5C685.7 411 728.3 409 771.2 416C814 423 857 439 878.5 447L900 455L900 601L878.5 601C857 601 814 601 771.2 601C728.3 601 685.7 601 642.8 601C600 601 557 601 514.2 601C471.3 601 428.7 601 385.8 601C343 601 300 601 257.2 601C214.3 601 171.7 601 128.8 601C86 601 43 601 21.5 601L0 601Z" fill="#ff00e8" stroke-linecap="round" stroke-linejoin="miter"></path></svg>